<svg width="162" height="38" viewBox="0 0 162 38" fill="none" xmlns="http://www.w3.org/2000/svg">
<path d="M7.84 4.66V4.31H1.225V4.66H1.47C2.45 4.66 3.045 5.29 3.045 6.235V28.04C3.045 29.02 2.45 29.65 1.47 29.65H1.225V30H17.745L19.215 24.855H18.83L18.76 25.1C17.92 27.83 15.47 29.65 12.635 29.65H5.985V6.235C5.985 5.29 6.615 4.66 7.56 4.66H7.84ZM22.9824 26.115L29.2824 8.405L33.7624 21.18L22.9824 26.115ZM36.2124 28.145C36.5274 29.055 36.1074 29.65 35.1624 29.65H34.9174V30H41.6724V29.65H41.3924C40.4474 29.65 39.6074 29.055 39.2924 28.145L30.8924 4.31H30.3324L21.8274 28.215C21.5474 29.125 20.7074 29.72 19.7274 29.72H19.4824V30H23.5424V29.72H23.2974C22.3524 29.72 21.9324 29.125 22.2474 28.215L22.8074 26.57L33.9024 21.53L36.2124 28.145ZM56.225 18.94L64.17 4.975V28.04C64.17 29.02 63.575 29.65 62.595 29.65H62.35V30H68.965V29.65H68.685C67.74 29.65 67.11 29.02 67.11 28.04V6.235C67.11 5.29 67.74 4.66 68.685 4.66H68.965V4.31H64.135L55.98 18.59L48.07 4.31H42.89V4.66H43.135C44.115 4.66 44.71 5.29 44.71 6.235V28.04C44.71 29.02 44.115 29.65 43.135 29.65H42.89V30H46.915V29.65H46.67C45.725 29.65 45.095 29.02 45.095 28.04V4.975L54.3 21.565L54.545 21.915L56.225 18.94ZM73.7051 26.115L80.0051 8.405L84.4851 21.18L73.7051 26.115ZM86.9351 28.145C87.2501 29.055 86.8301 29.65 85.8851 29.65H85.6401V30H92.3951V29.65H92.1151C91.1701 29.65 90.3301 29.055 90.0151 28.145L81.6151 4.31H81.0551L72.5501 28.215C72.2701 29.125 71.4301 29.72 70.4501 29.72H70.2051V30H74.2651V29.72H74.0201C73.0751 29.72 72.6551 29.125 72.9701 28.215L73.5301 26.57L84.6251 21.53L86.9351 28.145ZM113.073 30V6.235C113.073 5.29 113.703 4.66 114.648 4.66H114.893V4.31H110.868V4.66H111.113C112.093 4.66 112.688 5.29 112.688 6.235V24.995L98.9677 4.31H93.6127V4.66H93.8577C94.8377 4.66 95.4327 5.29 95.4327 6.235V28.04C95.4327 29.02 94.8377 29.65 93.8577 29.65H93.6127V30H97.6377V29.65H97.3927C96.4477 29.65 95.8177 29.02 95.8177 28.04V4.87L112.478 30H113.073ZM133.475 12.01H133.615V5.64C132.32 4.66 129.52 3.925 126.58 3.925C121.26 3.925 117.55 6.375 117.55 9.91C117.55 17.05 132.6 18.1 132.6 24.925C132.6 27.83 129.835 30 125.81 30C121.19 30 118.39 27.13 117.69 22.3H117.55V28.67C118.88 29.65 121.645 30.35 124.935 30.35C130.955 30.35 134.735 27.83 134.735 23.7C134.735 15.405 119.685 14.565 119.685 8.86C119.685 6.445 122.345 4.31 125.88 4.31C130.01 4.31 132.775 7.18 133.475 12.01ZM143.39 29.65C142.445 29.65 141.815 29.02 141.815 28.04V19.78L153.925 14.88V28.04C153.925 29.02 153.33 29.65 152.35 29.65H152.105V30H158.72V29.65H158.475C157.495 29.65 156.865 29.02 156.865 28.04V6.235C156.865 5.29 157.495 4.66 158.475 4.66H158.72V4.31H152.105V4.66H152.35C153.33 4.66 153.925 5.29 153.925 6.235V14.46L141.815 19.395V6.235C141.815 5.29 142.445 4.66 143.39 4.66H143.67V4.31H137.055V4.66H137.3C138.28 4.66 138.875 5.29 138.875 6.235V28.04C138.875 29.02 138.28 29.65 137.3 29.65H137.055V30H143.67V29.65H143.39Z" fill="white"/>
</svg>
